<svg width="20" height="20" viewBox="0 0 32 32" fill="none" xmlns="http://www.w3.org/2000/svg">
<mask id="mask0_2361_10343" style="mask-type:alpha" maskUnits="userSpaceOnUse" x="8" y="1" width="16" height="30">
<path d="M21.3334 8.99686V23.1035C21.3334 25.8902 19.2934 28.3702 16.52 28.6369C13.3334 28.9435 10.6667 26.4502 10.6667 23.3302V6.85019C10.6667 5.10353 11.92 3.51686 13.6534 3.34352C15.6534 3.14352 17.3334 4.70352 17.3334 6.66352V20.6635C17.3334 21.3969 16.7334 21.9969 16 21.9969C15.2667 21.9969 14.6667 21.3969 14.6667 20.6635V8.99686C14.6667 8.45019 14.2134 7.99686 13.6667 7.99686C13.12 7.99686 12.6667 8.45019 12.6667 8.99686V20.4769C12.6667 22.2235 13.92 23.8102 15.6534 23.9835C17.6534 24.1835 19.3334 22.6235 19.3334 20.6635V6.89019C19.3334 4.10352 17.2934 1.62352 14.52 1.35686C11.3467 1.05019 8.66669 3.54352 8.66669 6.66352V23.0235C8.66669 26.8502 11.4667 30.2769 15.28 30.6369C19.6667 31.0369 23.3334 27.6235 23.3334 23.3302V8.99686C23.3334 8.45019 22.88 7.99686 22.3334 7.99686C21.7867 7.99686 21.3334 8.45019 21.3334 8.99686Z" fill="black"/>
</mask>
<g mask="url(#mask0_2361_10343)">
<rect width="32" height="32" fill="#858C94"/>
</g>
</svg>
